<?xml version="1.0" encoding="UTF-8"?>
<svg id="Layer_1" xmlns="http://www.w3.org/2000/svg" version="1.1" viewBox="0 0 67 66">
  <!-- Generator: Adobe Illustrator 29.2.1, SVG Export Plug-In . SVG Version: 2.1.0 Build 116)  -->
  <defs>
    <style>
      .st0 {
        fill-rule: evenodd;
      }

      .st1 {
        fill: #fff;
      }

      .st2 {
        fill: none;
        stroke: #000;
        stroke-opacity: .2;
      }
    </style>
  </defs>
  <path class="st1" d="M1.5,33C1.5,15.3,15.8,1,33.5,1s32,14.3,32,32-14.3,32-32,32S1.5,50.7,1.5,33Z"/>
  <path class="st2" d="M33.5.5C15.6.5,1,15.1,1,33s14.6,32.5,32.5,32.5,32.5-14.6,32.5-32.5S51.4.5,33.5.5Z"/>
  <path class="st0" d="M29.5,13.2c2.9,6.7,9.5,11.3,17.2,11.3h4v4h-18.7c-8.4,0-15.3-6.8-15.3-15.3h12.8ZM29.5,52.8c2.9-6.7,9.5-11.3,17.2-11.3h4v-4h-18.7c-8.4,0-15.3,6.8-15.3,15.3h12.8ZM50.7,30.7v4.5c-24.7,0-33.9,1.1-33.9,1.1v-6.8s9.5,1.1,33.9,1.1Z"/>
</svg>