<svg width="25" height="25" viewBox="0 0 25 25" fill="none" xmlns="http://www.w3.org/2000/svg">
<path d="M12.5 24.875C5.66548 24.875 0.125 19.3345 0.125 12.5C0.125 5.66548 5.66548 0.125 12.5 0.125C19.3345 0.125 24.875 5.66548 24.875 12.5C24.875 19.3345 19.3345 24.875 12.5 24.875Z" fill="white"/>
<path d="M12.5 24.875C5.66548 24.875 0.125 19.3345 0.125 12.5C0.125 5.66548 5.66548 0.125 12.5 0.125C19.3345 0.125 24.875 5.66548 24.875 12.5C24.875 19.3345 19.3345 24.875 12.5 24.875Z" stroke="#E2E2E2" stroke-width="0.25"/>
<path fill-rule="evenodd" clip-rule="evenodd" d="M18.9821 9.28546V10.7857L11.9107 10.7857C8.71535 10.7857 6.125 8.19535 6.125 5L10.9807 5C12.062 7.52023 14.5659 9.28546 17.4821 9.28546H18.9821ZM18.9821 15.7148V14.2146H11.9107C8.71535 14.2146 6.125 16.805 6.125 20.0003H10.9806C12.062 17.4801 14.5659 15.7148 17.4821 15.7148H18.9821ZM18.9821 11.6431V13.3574C9.60656 13.3574 6.125 13.786 6.125 13.786L6.125 11.2145C6.125 11.2145 9.71622 11.6431 18.9821 11.6431Z" fill="#161F36"/>
</svg>
