<svg width="25" height="25" viewBox="0 0 25 25" fill="none" xmlns="http://www.w3.org/2000/svg">
<path d="M12.5 24.75C5.73451 24.75 0.25 19.2655 0.25 12.5C0.25 5.73451 5.73451 0.25 12.5 0.25C19.2655 0.25 24.75 5.73451 24.75 12.5C24.75 19.2655 19.2655 24.75 12.5 24.75Z" fill="white"/>
<path d="M12.5 24.75C5.73451 24.75 0.25 19.2655 0.25 12.5C0.25 5.73451 5.73451 0.25 12.5 0.25C19.2655 0.25 24.75 5.73451 24.75 12.5C24.75 19.2655 19.2655 24.75 12.5 24.75Z" stroke="#BDC0C7" stroke-width="0.5"/>
<path fill-rule="evenodd" clip-rule="evenodd" d="M18.9821 9.28546V10.7857L11.9107 10.7857C8.71535 10.7857 6.125 8.19535 6.125 5L10.9807 5C12.062 7.52023 14.5659 9.28546 17.4821 9.28546H18.9821ZM18.9821 15.7148V14.2146H11.9107C8.71535 14.2146 6.125 16.805 6.125 20.0003H10.9806C12.062 17.4801 14.5659 15.7148 17.4821 15.7148H18.9821ZM18.9821 11.6431V13.3574C9.60656 13.3574 6.125 13.786 6.125 13.786L6.125 11.2145C6.125 11.2145 9.71622 11.6431 18.9821 11.6431Z" fill="#161F36"/>
</svg>
